<?xml version="1.0" encoding="UTF-8"?>
<svg xmlns="http://www.w3.org/2000/svg" xmlns:xlink="http://www.w3.org/1999/xlink" width="48px" height="53px" viewBox="0 0 36 39" version="1.1">
<g id="surface1">
<path style=" stroke:none;fill-rule:evenodd;fill:rgb(0%,0%,0%);fill-opacity:1;" d="M 18.710938 0.792969 C 18.710938 0.84375 18.277344 0.949219 17.746094 1.03125 C 17.21875 1.117188 16.710938 1.253906 16.625 1.339844 C 16.535156 1.429688 16.300781 1.535156 16.105469 1.578125 C 15.910156 1.621094 15.75 1.703125 15.75 1.761719 C 15.75 1.820312 15.621094 1.898438 15.460938 1.9375 C 15.304688 1.976562 15.144531 2.082031 15.109375 2.171875 C 15.074219 2.265625 14.976562 2.335938 14.894531 2.335938 C 14.808594 2.335938 14.570312 2.523438 14.363281 2.746094 C 14.152344 2.972656 13.929688 3.15625 13.863281 3.15625 C 13.730469 3.15625 13.027344 3.804688 13.027344 3.925781 C 13.027344 3.96875 12.867188 4.179688 12.671875 4.402344 C 12.476562 4.621094 12.316406 4.878906 12.316406 4.972656 C 12.316406 5.066406 12.265625 5.144531 12.203125 5.144531 C 12.144531 5.144531 12.027344 5.328125 11.945312 5.550781 C 11.863281 5.777344 11.761719 5.960938 11.71875 5.960938 C 11.675781 5.960938 11.574219 6.171875 11.488281 6.429688 C 11.402344 6.6875 11.289062 6.898438 11.242188 6.898438 C 11.191406 6.898438 11.113281 7.054688 11.070312 7.253906 C 11.027344 7.449219 10.8125 7.957031 10.589844 8.382812 C 10.367188 8.808594 10.152344 9.335938 10.113281 9.546875 C 10.074219 9.761719 9.992188 9.9375 9.9375 9.9375 C 9.878906 9.9375 9.773438 10.171875 9.699219 10.460938 C 9.625 10.75 9.527344 10.988281 9.480469 10.988281 C 9.433594 10.988281 9.324219 11.410156 9.238281 11.921875 C 9.148438 12.4375 9.03125 12.859375 8.980469 12.859375 C 8.925781 12.859375 8.882812 13.4375 8.882812 14.144531 C 8.882812 14.921875 8.929688 15.429688 9 15.429688 C 9.066406 15.429688 9.117188 15.574219 9.117188 15.75 C 9.121094 16.175781 9.339844 16.949219 9.460938 16.949219 C 9.511719 16.949219 9.617188 17.160156 9.695312 17.417969 C 9.773438 17.675781 9.890625 17.882812 9.953125 17.882812 C 10.015625 17.882812 10.066406 17.949219 10.066406 18.027344 C 10.066406 18.21875 11.023438 19.171875 11.214844 19.171875 C 11.300781 19.171875 11.367188 19.222656 11.367188 19.289062 C 11.367188 19.355469 11.5 19.460938 11.664062 19.519531 C 11.828125 19.582031 11.960938 19.6875 11.960938 19.75 C 11.960938 19.816406 12.019531 19.871094 12.09375 19.871094 C 12.164062 19.871094 12.417969 20.03125 12.65625 20.226562 C 12.890625 20.421875 13.148438 20.628906 13.222656 20.691406 C 13.300781 20.75 13.621094 20.863281 13.933594 20.9375 C 14.25 21.015625 14.539062 21.128906 14.582031 21.191406 C 14.625 21.253906 15.078125 21.316406 15.589844 21.328125 L 16.519531 21.351562 L 16.554688 21.699219 C 16.585938 22 16.535156 22.066406 16.171875 22.207031 C 15.941406 22.296875 15.722656 22.457031 15.6875 22.566406 C 15.605469 22.824219 15.007812 23.441406 14.667969 23.621094 C 14.402344 23.761719 14.242188 23.875 13.871094 24.195312 C 13.761719 24.292969 13.433594 24.53125 13.140625 24.722656 C 12.851562 24.914062 12.542969 25.140625 12.457031 25.21875 C 12.371094 25.300781 12.222656 25.367188 12.125 25.367188 C 12.03125 25.367188 11.921875 25.441406 11.886719 25.535156 C 11.851562 25.625 11.667969 25.734375 11.476562 25.777344 C 11.289062 25.816406 11.09375 25.917969 11.042969 25.996094 C 10.996094 26.074219 10.78125 26.207031 10.570312 26.292969 C 10.355469 26.378906 10.183594 26.492188 10.183594 26.546875 C 10.183594 26.605469 10.132812 26.652344 10.074219 26.652344 C 9.898438 26.652344 8.761719 27.375 8.761719 27.488281 C 8.761719 27.542969 8.699219 27.585938 8.621094 27.585938 C 8.449219 27.585938 6.988281 29.105469 6.988281 29.289062 C 6.988281 29.328125 6.878906 29.496094 6.75 29.660156 L 6.511719 29.957031 L 6.511719 29.011719 C 6.511719 28.277344 6.558594 28.027344 6.71875 27.871094 C 6.953125 27.636719 7.015625 26 6.792969 25.855469 C 6.570312 25.714844 6.492188 25.109375 6.507812 23.722656 C 6.523438 22.246094 6.433594 22 5.761719 21.75 C 5.363281 21.601562 5.292969 20.5 5.65625 20.125 C 6.007812 19.761719 6.15625 19.425781 6.15625 19.007812 C 6.15625 18.785156 6.210938 18.585938 6.273438 18.566406 C 6.539062 18.476562 6.46875 14.59375 6.191406 14.105469 C 5.855469 13.515625 5.507812 13.230469 5 13.136719 C 4.351562 13.015625 3.316406 13.472656 3.316406 13.882812 C 3.316406 13.964844 3.238281 14.0625 3.148438 14.097656 C 2.632812 14.292969 2.554688 19.109375 3.054688 19.71875 C 3.203125 19.898438 3.355469 20.140625 3.394531 20.25 C 3.429688 20.363281 3.507812 20.457031 3.566406 20.457031 C 3.710938 20.457031 3.699219 21.011719 3.550781 21.097656 C 3.488281 21.140625 3.433594 21.261719 3.433594 21.375 C 3.433594 21.484375 3.234375 21.757812 2.988281 21.984375 C 2.746094 22.207031 2.464844 22.546875 2.367188 22.738281 C 2.269531 22.929688 2.160156 23.113281 2.125 23.144531 C 2.089844 23.175781 1.984375 23.386719 1.894531 23.613281 C 1.804688 23.835938 1.691406 24.050781 1.640625 24.082031 C 1.589844 24.117188 1.484375 24.5 1.398438 24.929688 C 1.316406 25.363281 1.207031 25.714844 1.15625 25.714844 C 1.105469 25.714844 1.066406 25.925781 1.066406 26.183594 C 1.066406 26.441406 1.113281 26.652344 1.171875 26.652344 C 1.230469 26.652344 1.316406 26.96875 1.363281 27.355469 C 1.40625 27.742188 1.511719 28.125 1.589844 28.207031 C 1.734375 28.34375 1.832031 28.652344 1.976562 29.398438 C 2.015625 29.589844 2.105469 29.785156 2.175781 29.832031 C 2.265625 29.890625 2.300781 30.46875 2.277344 31.640625 C 2.242188 33.429688 2.210938 33.542969 1.714844 33.546875 C 1.230469 33.550781 1.066406 33.933594 1.066406 35.070312 C 1.066406 35.691406 1.113281 36.121094 1.183594 36.121094 C 1.25 36.121094 1.300781 36.277344 1.300781 36.46875 C 1.300781 36.664062 1.257812 36.820312 1.203125 36.820312 C 1.148438 36.820312 1.03125 36.964844 0.9375 37.140625 C 0.84375 37.320312 0.726562 37.496094 0.675781 37.535156 C 0.621094 37.570312 0.546875 37.898438 0.507812 38.265625 L 0.441406 38.925781 L 0.988281 38.925781 C 1.460938 38.925781 1.539062 38.890625 1.539062 38.691406 C 1.539062 38.5625 1.582031 38.457031 1.632812 38.457031 C 1.683594 38.457031 1.777344 38.285156 1.839844 38.078125 L 1.953125 37.699219 L 3.074219 37.605469 C 3.691406 37.554688 4.222656 37.472656 4.257812 37.421875 C 4.292969 37.371094 4.789062 37.257812 5.359375 37.171875 C 5.929688 37.085938 6.394531 36.972656 6.394531 36.917969 C 6.394531 36.714844 6.855469 36.832031 6.925781 37.054688 C 6.96875 37.183594 7.050781 37.289062 7.109375 37.289062 C 7.164062 37.289062 7.230469 37.644531 7.246094 38.078125 L 7.28125 38.867188 L 7.863281 38.867188 C 8.460938 38.867188 8.886719 38.566406 8.570312 38.367188 C 8.496094 38.320312 8.398438 37.953125 8.351562 37.546875 C 8.304688 37.144531 8.203125 36.746094 8.128906 36.667969 C 7.792969 36.304688 7.699219 35.953125 7.699219 35.078125 C 7.699219 34.566406 7.644531 34.113281 7.578125 34.074219 C 7.515625 34.035156 7.460938 33.773438 7.460938 33.492188 C 7.460938 33.003906 7.292969 32.695312 6.964844 32.585938 C 6.832031 32.542969 7.210938 31.429688 7.609375 30.683594 C 7.925781 30.089844 8.003906 29.976562 8.140625 29.890625 C 8.222656 29.839844 8.289062 29.730469 8.289062 29.652344 C 8.289062 29.464844 9.257812 28.523438 9.449219 28.523438 C 9.527344 28.523438 9.59375 28.46875 9.59375 28.402344 C 9.59375 28.335938 9.726562 28.230469 9.886719 28.171875 C 10.050781 28.109375 10.183594 28.015625 10.183594 27.960938 C 10.183594 27.90625 10.371094 27.792969 10.597656 27.703125 C 10.828125 27.613281 11.011719 27.511719 11.011719 27.46875 C 11.011719 27.429688 11.199219 27.324219 11.425781 27.234375 C 11.65625 27.148438 11.84375 27.039062 11.84375 26.992188 C 11.84375 26.945312 12 26.851562 12.199219 26.785156 C 12.394531 26.71875 12.550781 26.609375 12.550781 26.539062 C 12.550781 26.472656 12.605469 26.417969 12.671875 26.417969 C 12.839844 26.417969 12.816406 26.6875 12.613281 27.074219 C 12.519531 27.253906 12.40625 27.644531 12.363281 27.933594 C 12.320312 28.226562 12.238281 28.492188 12.183594 28.527344 C 12.128906 28.5625 12.023438 28.996094 11.949219 29.492188 C 11.875 29.988281 11.777344 30.390625 11.730469 30.390625 C 11.6875 30.390625 11.578125 30.878906 11.492188 31.472656 C 11.402344 32.066406 11.296875 32.582031 11.253906 32.613281 C 11.214844 32.644531 11.109375 33.085938 11.027344 33.597656 C 10.941406 34.105469 10.828125 34.605469 10.769531 34.707031 C 10.714844 34.808594 10.636719 35.195312 10.597656 35.566406 C 10.503906 36.394531 10.246094 36.476562 10.132812 35.710938 C 10.085938 35.421875 10 35.183594 9.941406 35.183594 C 9.878906 35.183594 9.828125 35.058594 9.828125 34.902344 C 9.828125 34.496094 9.566406 33.429688 9.46875 33.429688 C 9.421875 33.429688 9.355469 33.324219 9.320312 33.199219 C 9.273438 33.019531 9.160156 32.964844 8.832031 32.964844 L 8.40625 32.964844 L 8.40625 33.664062 C 8.40625 34.050781 8.453125 34.367188 8.511719 34.367188 C 8.566406 34.367188 8.679688 34.683594 8.761719 35.066406 C 8.847656 35.453125 8.953125 35.769531 9 35.769531 C 9.046875 35.769531 9.152344 36.097656 9.234375 36.5 C 9.3125 36.902344 9.433594 37.265625 9.5 37.304688 C 9.570312 37.347656 9.652344 37.664062 9.683594 38.007812 C 9.757812 38.804688 9.863281 38.925781 10.484375 38.925781 C 11.125 38.925781 11.300781 38.632812 11.492188 37.25 C 11.566406 36.726562 11.660156 36.269531 11.707031 36.238281 C 11.753906 36.203125 11.851562 35.816406 11.929688 35.371094 C 12.070312 34.539062 12.1875 34.371094 12.640625 34.367188 C 12.789062 34.367188 12.90625 34.3125 12.90625 34.25 C 12.90625 34.175781 13.972656 34.132812 15.867188 34.132812 C 17.761719 34.132812 18.828125 34.175781 18.828125 34.25 C 18.828125 34.320312 19.398438 34.367188 20.300781 34.367188 C 21.15625 34.367188 21.804688 34.316406 21.847656 34.25 C 21.945312 34.097656 25.222656 34.09375 25.222656 34.246094 C 25.222656 34.308594 25.714844 34.371094 26.320312 34.390625 L 27.414062 34.425781 L 27.519531 35.125 C 27.578125 35.511719 27.664062 35.855469 27.710938 35.886719 C 27.761719 35.917969 27.867188 36.511719 27.949219 37.199219 C 28.03125 37.890625 28.140625 38.457031 28.1875 38.457031 C 28.234375 38.457031 28.304688 38.5625 28.335938 38.691406 C 28.394531 38.90625 28.5 38.925781 29.769531 38.925781 L 31.136719 38.925781 L 31.585938 38.546875 C 32.316406 37.925781 32.46875 37.382812 31.945312 37.246094 C 31.707031 37.1875 31.574219 37.246094 30.957031 37.695312 C 30.871094 37.753906 30.769531 37.773438 30.730469 37.738281 C 30.636719 37.644531 30.921875 36.121094 31.03125 36.121094 C 31.078125 36.121094 31.152344 35.832031 31.199219 35.476562 C 31.242188 35.125 31.328125 34.832031 31.390625 34.832031 C 31.597656 34.832031 31.523438 33.113281 31.3125 33.035156 C 30.566406 32.75 30.375 32.933594 30.253906 34.054688 C 30.207031 34.484375 30.121094 34.832031 30.066406 34.832031 C 30.007812 34.832031 29.960938 34.964844 29.960938 35.125 C 29.960938 35.625 29.679688 37.054688 29.582031 37.054688 C 29.527344 37.054688 29.488281 37.15625 29.488281 37.28125 C 29.488281 37.40625 29.433594 37.542969 29.367188 37.582031 C 29.300781 37.621094 29.25 37.523438 29.25 37.355469 C 29.25 37.191406 29.195312 37.054688 29.132812 37.054688 C 29.066406 37.054688 29.011719 36.882812 29.015625 36.675781 C 29.015625 36.132812 28.746094 34.4375 28.648438 34.367188 C 28.605469 34.335938 28.503906 33.835938 28.425781 33.257812 C 28.351562 32.679688 28.246094 32.179688 28.199219 32.148438 C 28.152344 32.113281 28.039062 31.640625 27.953125 31.09375 C 27.867188 30.546875 27.753906 30.046875 27.703125 29.980469 C 27.648438 29.914062 27.570312 29.570312 27.523438 29.21875 C 27.476562 28.867188 27.394531 28.550781 27.34375 28.519531 C 27.292969 28.484375 27.191406 28.09375 27.117188 27.644531 C 27.046875 27.199219 26.921875 26.792969 26.84375 26.742188 C 26.746094 26.679688 26.757812 26.65625 26.890625 26.652344 C 26.992188 26.652344 27.179688 26.75 27.3125 26.871094 C 27.441406 26.988281 27.746094 27.160156 27.984375 27.246094 C 28.226562 27.328125 28.421875 27.441406 28.421875 27.496094 C 28.421875 27.550781 28.554688 27.640625 28.71875 27.703125 C 28.878906 27.765625 29.011719 27.859375 29.011719 27.914062 C 29.011719 27.964844 29.199219 28.082031 29.421875 28.167969 C 29.648438 28.257812 29.859375 28.398438 29.894531 28.484375 C 29.925781 28.570312 30.019531 28.636719 30.105469 28.636719 C 30.3125 28.636719 31.566406 29.925781 31.667969 30.246094 C 31.714844 30.390625 31.796875 30.507812 31.851562 30.507812 C 31.90625 30.507812 32.019531 30.773438 32.105469 31.09375 C 32.1875 31.414062 32.292969 31.679688 32.335938 31.679688 C 32.382812 31.679688 32.484375 31.925781 32.558594 32.230469 C 32.636719 32.535156 32.75 32.84375 32.8125 32.917969 C 32.875 32.988281 32.988281 33.449219 33.066406 33.941406 C 33.148438 34.433594 33.246094 34.832031 33.289062 34.832031 C 33.335938 34.832031 33.4375 35.28125 33.519531 35.828125 C 33.601562 36.375 33.707031 36.820312 33.753906 36.820312 C 33.800781 36.820312 33.875 37.089844 33.917969 37.417969 C 34.070312 38.542969 34.320312 38.925781 34.902344 38.925781 C 35.363281 38.925781 35.40625 38.898438 35.40625 38.636719 C 35.40625 38.179688 35.128906 36.652344 35.035156 36.585938 C 34.988281 36.550781 34.894531 36.191406 34.828125 35.785156 C 34.761719 35.378906 34.65625 34.984375 34.597656 34.910156 C 34.539062 34.835938 34.453125 34.472656 34.40625 34.101562 C 34.363281 33.734375 34.285156 33.429688 34.238281 33.429688 C 34.191406 33.429688 34.082031 33.035156 33.996094 32.554688 C 33.90625 32.074219 33.796875 31.679688 33.746094 31.679688 C 33.695312 31.679688 33.589844 31.414062 33.511719 31.09375 C 33.433594 30.773438 33.324219 30.507812 33.265625 30.507812 C 33.207031 30.507812 33.15625 30.429688 33.15625 30.332031 C 33.15625 30.136719 32.945312 29.730469 32.714844 29.480469 C 32.632812 29.394531 32.566406 29.277344 32.566406 29.21875 C 32.566406 29.097656 31.582031 28.054688 31.464844 28.054688 C 31.417969 28.054688 31.277344 27.960938 31.152344 27.851562 C 30.730469 27.472656 30.5625 27.351562 30.261719 27.214844 C 30.097656 27.140625 29.960938 27.042969 29.960938 26.996094 C 29.960938 26.953125 29.800781 26.847656 29.605469 26.769531 C 29.410156 26.6875 29.25 26.582031 29.25 26.535156 C 29.25 26.484375 29.078125 26.378906 28.863281 26.292969 C 28.652344 26.207031 28.441406 26.078125 28.394531 26 C 28.34375 25.921875 28.171875 25.824219 28.003906 25.785156 C 27.839844 25.742188 27.609375 25.621094 27.488281 25.507812 C 27.371094 25.398438 27.152344 25.226562 27.003906 25.132812 C 26.851562 25.035156 26.503906 24.773438 26.230469 24.546875 C 25.308594 23.796875 25.222656 23.730469 25.144531 23.730469 C 25.101562 23.730469 24.695312 23.359375 24.242188 22.910156 C 23.789062 22.460938 23.347656 22.09375 23.265625 22.09375 C 23.113281 22.09375 22.902344 21.660156 23.003906 21.558594 C 23.03125 21.53125 23.367188 21.484375 23.753906 21.453125 C 24.777344 21.371094 25.34375 21.265625 25.34375 21.160156 C 25.34375 21.109375 25.527344 21.03125 25.753906 20.992188 C 25.980469 20.949219 26.207031 20.851562 26.257812 20.773438 C 26.308594 20.695312 26.507812 20.550781 26.703125 20.457031 C 26.898438 20.359375 27.097656 20.21875 27.148438 20.144531 C 27.199219 20.070312 27.398438 19.972656 27.59375 19.929688 C 27.789062 19.886719 27.949219 19.804688 27.949219 19.746094 C 27.949219 19.6875 28.015625 19.636719 28.09375 19.636719 C 28.261719 19.632812 29.367188 18.550781 29.367188 18.390625 C 29.367188 18.332031 29.476562 18.195312 29.605469 18.085938 C 29.734375 17.976562 29.84375 17.785156 29.84375 17.660156 C 29.84375 17.535156 29.914062 17.363281 30 17.277344 C 30.203125 17.078125 30.433594 16.15625 30.433594 15.554688 C 30.433594 15.292969 30.488281 15.078125 30.550781 15.078125 C 30.617188 15.078125 30.671875 14.765625 30.671875 14.378906 C 30.671875 13.988281 30.617188 13.675781 30.550781 13.675781 C 30.488281 13.675781 30.433594 13.46875 30.433594 13.210938 C 30.433594 12.632812 30.175781 11.066406 30.066406 10.988281 C 30.019531 10.957031 29.925781 10.707031 29.851562 10.433594 C 29.777344 10.160156 29.671875 9.9375 29.621094 9.9375 C 29.566406 9.9375 29.457031 9.636719 29.371094 9.265625 C 29.289062 8.898438 29.152344 8.492188 29.066406 8.363281 C 28.980469 8.230469 28.875 7.925781 28.832031 7.6875 C 28.785156 7.445312 28.707031 7.246094 28.652344 7.246094 C 28.601562 7.246094 28.519531 7.078125 28.476562 6.867188 C 28.429688 6.660156 28.1875 6.136719 27.933594 5.707031 C 27.679688 5.277344 27.472656 4.898438 27.472656 4.859375 C 27.472656 4.789062 27.375 4.667969 26.644531 3.871094 C 26.386719 3.589844 26.144531 3.257812 26.105469 3.140625 C 26.066406 3.019531 25.96875 2.921875 25.890625 2.921875 C 25.808594 2.921875 25.625 2.8125 25.480469 2.679688 C 25.335938 2.550781 25.046875 2.382812 24.835938 2.3125 C 24.625 2.242188 24.417969 2.128906 24.375 2.0625 C 24.328125 1.996094 23.898438 1.953125 23.398438 1.960938 C 22.839844 1.972656 22.5 1.933594 22.5 1.859375 C 22.5 1.628906 21.804688 1.050781 21.441406 0.976562 C 21.242188 0.9375 21.078125 0.859375 21.078125 0.804688 C 21.078125 0.746094 20.546875 0.703125 19.894531 0.703125 C 19.242188 0.703125 18.710938 0.742188 18.710938 0.792969 M 21.398438 2.21875 C 21.746094 2.410156 21.917969 2.59375 21.972656 2.824219 C 22.046875 3.160156 23.09375 3.359375 23.09375 3.039062 C 23.09375 2.894531 23.527344 2.882812 23.617188 3.023438 C 23.652344 3.082031 23.828125 3.15625 24.007812 3.191406 C 24.566406 3.304688 25.894531 4.488281 26.179688 5.125 C 26.273438 5.328125 26.382812 5.492188 26.425781 5.492188 C 26.53125 5.492188 26.945312 6.363281 27.140625 6.984375 C 27.226562 7.257812 27.332031 7.480469 27.378906 7.480469 C 27.425781 7.480469 27.496094 7.664062 27.539062 7.890625 C 27.582031 8.117188 27.664062 8.300781 27.722656 8.300781 C 27.78125 8.300781 27.828125 8.394531 27.828125 8.507812 C 27.828125 8.625 27.933594 8.921875 28.066406 9.175781 C 28.195312 9.425781 28.335938 9.808594 28.375 10.023438 C 28.417969 10.238281 28.519531 10.484375 28.605469 10.566406 C 28.691406 10.652344 28.828125 11.058594 28.914062 11.46875 C 28.996094 11.878906 29.121094 12.253906 29.1875 12.296875 C 29.363281 12.417969 29.351562 16.230469 29.175781 16.339844 C 29.101562 16.386719 29.007812 16.589844 28.960938 16.792969 C 28.917969 16.996094 28.761719 17.296875 28.621094 17.460938 L 28.363281 17.753906 L 28.339844 15.644531 C 28.328125 14.3125 28.273438 13.484375 28.195312 13.40625 C 28.125 13.335938 28.066406 13.203125 28.066406 13.109375 C 28.066406 12.898438 27.503906 12.15625 27.34375 12.15625 C 27.160156 12.15625 26.648438 11.5625 26.570312 11.261719 C 26.53125 11.109375 26.453125 10.988281 26.394531 10.988281 C 26.335938 10.988281 26.289062 10.921875 26.289062 10.835938 C 26.289062 10.753906 26.132812 10.503906 25.9375 10.28125 C 25.746094 10.058594 25.585938 9.835938 25.582031 9.78125 C 25.582031 9.730469 25.285156 9.410156 24.925781 9.074219 C 24.570312 8.738281 24.277344 8.417969 24.277344 8.363281 C 24.277344 8.308594 24.125 8.121094 23.9375 7.945312 C 23.75 7.769531 23.523438 7.460938 23.433594 7.261719 C 23.34375 7.0625 23.242188 6.898438 23.203125 6.898438 C 23.167969 6.898438 23.0625 6.710938 22.972656 6.488281 C 22.882812 6.261719 22.773438 6.078125 22.726562 6.078125 C 22.582031 6.078125 22.136719 5.085938 22.261719 5.046875 C 22.632812 4.925781 22.191406 4.089844 21.761719 4.089844 C 21.492188 4.089844 21.089844 4.527344 21.082031 4.824219 C 21.082031 4.941406 21 5.0625 20.902344 5.101562 C 20.804688 5.136719 20.722656 5.21875 20.722656 5.28125 C 20.722656 5.542969 19.71875 6.675781 19.277344 6.910156 C 19.007812 7.050781 18.835938 7.179688 18.476562 7.5 C 18.359375 7.605469 18.070312 7.757812 17.835938 7.84375 C 17.601562 7.925781 17.40625 8.039062 17.40625 8.089844 C 17.40625 8.140625 17.335938 8.183594 17.246094 8.183594 C 17.15625 8.183594 16.953125 8.285156 16.796875 8.40625 C 16.636719 8.53125 16.308594 8.667969 16.070312 8.710938 C 15.828125 8.757812 15.632812 8.839844 15.632812 8.898438 C 15.632812 8.953125 15.519531 9 15.382812 9 C 15.132812 9 15.136719 8.464844 15.386719 8.300781 C 15.527344 8.207031 15.640625 7.636719 15.558594 7.433594 C 15.433594 7.105469 14.703125 7.1875 14.613281 7.539062 C 14.574219 7.699219 14.5 7.832031 14.453125 7.832031 C 14.40625 7.832031 14.300781 8.121094 14.222656 8.476562 C 14.140625 8.828125 14.027344 9.117188 13.964844 9.117188 C 13.90625 9.117188 13.824219 9.328125 13.78125 9.585938 C 13.742188 9.84375 13.664062 10.054688 13.613281 10.054688 C 13.5625 10.054688 13.453125 10.429688 13.371094 10.894531 C 13.210938 11.769531 12.960938 12.15625 12.558594 12.15625 C 12.003906 12.15625 11.367188 13.125 11.367188 13.964844 C 11.367188 14.269531 11.308594 14.496094 11.21875 14.523438 C 11.007812 14.59375 11.007812 17.320312 11.21875 17.386719 C 11.378906 17.441406 11.429688 17.769531 11.28125 17.765625 C 11.230469 17.765625 11.132812 17.648438 11.0625 17.503906 C 10.789062 16.953125 10.476562 16.421875 10.386719 16.355469 C 10.066406 16.121094 10.082031 12.511719 10.402344 12.113281 C 10.464844 12.042969 10.546875 11.8125 10.59375 11.605469 C 10.636719 11.402344 10.777344 11.023438 10.902344 10.765625 C 11.027344 10.507812 11.132812 10.230469 11.136719 10.144531 C 11.136719 10.0625 11.214844 9.898438 11.304688 9.777344 C 11.394531 9.660156 11.503906 9.359375 11.546875 9.105469 C 11.589844 8.855469 11.667969 8.648438 11.722656 8.648438 C 11.777344 8.648438 11.886719 8.386719 11.972656 8.066406 C 12.054688 7.742188 12.164062 7.480469 12.214844 7.480469 C 12.265625 7.480469 12.371094 7.269531 12.449219 7.011719 C 12.527344 6.757812 12.632812 6.546875 12.683594 6.546875 C 12.730469 6.546875 12.808594 6.433594 12.851562 6.300781 C 12.960938 5.964844 13.480469 5.222656 13.6875 5.109375 C 13.777344 5.058594 13.855469 4.957031 13.855469 4.890625 C 13.855469 4.761719 15.230469 3.390625 15.359375 3.390625 C 15.398438 3.390625 15.605469 3.257812 15.820312 3.097656 C 16.035156 2.9375 16.261719 2.804688 16.324219 2.804688 C 16.390625 2.804688 16.515625 2.738281 16.601562 2.660156 C 16.753906 2.515625 17.835938 2.058594 18.296875 1.945312 C 18.964844 1.777344 20.90625 1.949219 21.398438 2.21875 M 23.234375 5.285156 C 22.832031 5.679688 24.03125 6.777344 24.46875 6.417969 C 24.738281 6.199219 24.65625 5.945312 24.1875 5.535156 C 23.71875 5.121094 23.464844 5.054688 23.234375 5.285156 M 13.460938 5.921875 C 13.332031 6.050781 13.371094 6.875 13.511719 6.960938 C 13.851562 7.167969 14.691406 6.3125 14.441406 6.015625 C 14.296875 5.84375 13.605469 5.777344 13.460938 5.921875 M 21.734375 6.472656 C 21.824219 6.5625 21.929688 6.773438 21.972656 6.941406 C 22.015625 7.113281 22.113281 7.289062 22.1875 7.335938 C 22.261719 7.382812 22.402344 7.582031 22.5 7.773438 C 22.691406 8.15625 22.804688 8.3125 23.121094 8.660156 C 23.234375 8.78125 23.328125 8.917969 23.328125 8.957031 C 23.328125 9.027344 23.902344 9.695312 24.582031 10.414062 C 24.738281 10.578125 24.867188 10.773438 24.867188 10.847656 C 24.867188 11.015625 24.5 10.886719 24.328125 10.660156 C 24.015625 10.25 21.675781 10.390625 21.503906 10.828125 C 21.46875 10.917969 21.371094 10.988281 21.285156 10.988281 C 21.027344 10.988281 20.394531 11.894531 20.199219 12.535156 C 20.105469 12.855469 19.183594 12.828125 19.183594 12.507812 C 19.183594 12.378906 19.140625 12.273438 19.089844 12.273438 C 19.039062 12.273438 18.925781 12.089844 18.84375 11.863281 C 18.761719 11.640625 18.652344 11.457031 18.597656 11.457031 C 18.546875 11.457031 18.472656 11.351562 18.441406 11.222656 C 18.40625 11.09375 18.28125 10.953125 18.160156 10.90625 C 18.039062 10.863281 17.875 10.761719 17.796875 10.683594 C 17.714844 10.605469 17.421875 10.503906 17.144531 10.457031 C 16.867188 10.414062 16.601562 10.320312 16.558594 10.25 C 16.503906 10.164062 16.429688 10.164062 16.320312 10.246094 C 16.234375 10.3125 15.863281 10.429688 15.492188 10.507812 C 15.121094 10.585938 14.796875 10.714844 14.765625 10.789062 C 14.738281 10.867188 14.679688 10.898438 14.636719 10.859375 C 14.398438 10.640625 15.128906 10.054688 15.648438 10.050781 C 15.800781 10.046875 16.195312 9.917969 16.519531 9.757812 C 16.84375 9.601562 17.199219 9.46875 17.308594 9.46875 C 17.417969 9.46875 17.523438 9.429688 17.546875 9.378906 C 17.566406 9.332031 17.890625 9.136719 18.265625 8.945312 C 18.640625 8.753906 18.949219 8.566406 18.949219 8.523438 C 18.949219 8.480469 19.101562 8.378906 19.292969 8.304688 C 19.484375 8.226562 19.667969 8.085938 19.703125 7.996094 C 19.738281 7.90625 19.835938 7.832031 19.921875 7.832031 C 20.003906 7.832031 20.285156 7.585938 20.546875 7.289062 C 21.488281 6.207031 21.472656 6.21875 21.734375 6.472656 M 17.082031 11.46875 C 17.457031 11.667969 18 12.296875 18 12.535156 C 18 12.648438 18.054688 12.742188 18.117188 12.742188 C 18.183594 12.742188 18.238281 12.925781 18.238281 13.148438 C 18.238281 13.375 18.183594 13.558594 18.117188 13.558594 C 18.054688 13.558594 18 13.652344 18 13.769531 C 18 14.3125 17.238281 15.078125 16.699219 15.078125 C 16.578125 15.078125 16.449219 15.144531 16.410156 15.226562 C 16.355469 15.34375 16.328125 15.34375 16.273438 15.226562 C 16.234375 15.144531 16.101562 15.078125 15.976562 15.078125 C 15.46875 15.078125 14.566406 14.203125 14.566406 13.710938 C 14.566406 13.628906 14.511719 13.558594 14.449219 13.558594 C 14.382812 13.558594 14.328125 13.402344 14.328125 13.207031 C 14.328125 13.015625 14.382812 12.859375 14.449219 12.859375 C 14.511719 12.859375 14.566406 12.789062 14.566406 12.707031 C 14.566406 12.5 14.84375 11.925781 14.941406 11.925781 C 14.988281 11.921875 15.09375 11.855469 15.179688 11.769531 C 15.617188 11.339844 16.554688 11.191406 17.082031 11.46875 M 23.71875 11.5 C 24.160156 11.6875 24.6875 12.21875 24.804688 12.59375 C 24.847656 12.738281 24.933594 12.859375 24.996094 12.859375 C 25.054688 12.859375 25.105469 13.042969 25.105469 13.265625 C 25.105469 13.492188 25.058594 13.675781 25 13.675781 C 24.941406 13.675781 24.859375 13.804688 24.820312 13.964844 C 24.722656 14.34375 24.0625 14.957031 23.65625 15.039062 C 23.476562 15.078125 23.328125 15.15625 23.328125 15.210938 C 23.328125 15.265625 23.222656 15.3125 23.09375 15.3125 C 22.960938 15.3125 22.855469 15.265625 22.855469 15.210938 C 22.855469 15.152344 22.679688 15.074219 22.464844 15.035156 C 21.699219 14.890625 20.621094 12.742188 21.316406 12.742188 C 21.382812 12.742188 21.433594 12.648438 21.433594 12.535156 C 21.433594 11.726562 22.792969 11.109375 23.71875 11.5 M 22.480469 12.273438 C 22.394531 12.464844 22.285156 12.625 22.234375 12.625 C 22.183594 12.625 22.144531 12.835938 22.144531 13.09375 C 22.144531 13.347656 22.195312 13.558594 22.253906 13.558594 C 22.316406 13.558594 22.382812 13.679688 22.402344 13.824219 C 22.457031 14.203125 23.433594 14.285156 23.53125 13.917969 C 23.566406 13.785156 23.640625 13.675781 23.699219 13.675781 C 23.753906 13.675781 23.800781 13.441406 23.800781 13.148438 C 23.800781 12.859375 23.753906 12.625 23.699219 12.625 C 23.640625 12.625 23.566406 12.519531 23.53125 12.390625 C 23.496094 12.261719 23.382812 12.15625 23.28125 12.15625 C 23.175781 12.15625 23.09375 12.105469 23.09375 12.039062 C 23.09375 11.765625 22.628906 11.941406 22.480469 12.273438 M 15.929688 12.339844 C 15.605469 12.582031 15.617188 13.84375 15.945312 14.089844 C 16.585938 14.570312 17.171875 14.101562 17.171875 13.117188 C 17.171875 12.183594 16.609375 11.832031 15.929688 12.339844 M 27.042969 13.589844 C 27.117188 13.875 26.996094 14.613281 26.875 14.613281 C 26.820312 14.613281 26.746094 14.714844 26.703125 14.84375 C 26.664062 14.972656 26.570312 15.078125 26.5 15.078125 C 26.433594 15.078125 26.316406 15.15625 26.242188 15.253906 C 26.148438 15.375 26.058594 15.390625 25.933594 15.3125 C 25.800781 15.222656 25.792969 15.171875 25.902344 15.105469 C 25.980469 15.054688 26.109375 14.617188 26.191406 14.140625 C 26.371094 13.082031 26.828125 12.785156 27.042969 13.589844 M 13.027344 13.601562 C 13.027344 13.746094 13.078125 13.914062 13.136719 13.972656 C 13.339844 14.175781 13.433594 15.3125 13.25 15.308594 C 12.683594 15.292969 12.199219 13.808594 12.621094 13.390625 C 12.851562 13.164062 13.027344 13.253906 13.027344 13.601562 M 20.0625 13.859375 C 20.164062 13.960938 20.28125 14.171875 20.320312 14.328125 C 20.363281 14.484375 20.441406 14.613281 20.5 14.613281 C 20.558594 14.613281 20.605469 14.667969 20.605469 14.734375 C 20.605469 15.015625 21.632812 15.878906 22.0625 15.960938 C 22.304688 16.003906 22.5 16.085938 22.5 16.144531 C 22.5 16.277344 23.175781 16.28125 23.261719 16.148438 C 23.296875 16.089844 23.546875 16.007812 23.824219 15.964844 C 24.097656 15.921875 24.386719 15.835938 24.46875 15.769531 C 24.546875 15.703125 24.640625 15.699219 24.675781 15.753906 C 24.757812 15.886719 24.632812 16.363281 24.511719 16.363281 C 24.460938 16.363281 24.386719 16.550781 24.34375 16.777344 C 24.265625 17.191406 23.832031 18.027344 23.660156 18.097656 C 23.609375 18.121094 23.566406 18.199219 23.5625 18.273438 C 23.5625 18.445312 22.515625 19.453125 22.234375 19.554688 C 22.121094 19.597656 22.027344 19.679688 22.027344 19.738281 C 22.027344 19.796875 21.902344 19.875 21.753906 19.914062 C 21.601562 19.953125 21.355469 20.089844 21.203125 20.21875 C 21.050781 20.347656 20.667969 20.484375 20.351562 20.527344 C 20.035156 20.570312 19.777344 20.648438 19.777344 20.703125 C 19.777344 20.761719 19.695312 20.808594 19.597656 20.808594 C 19.5 20.808594 19.421875 20.761719 19.421875 20.703125 C 19.421875 20.644531 19.222656 20.5625 18.976562 20.519531 C 18.617188 20.453125 17.792969 20.023438 17.527344 19.753906 C 17.492188 19.722656 17.308594 19.617188 17.117188 19.519531 C 16.703125 19.3125 16.140625 18.761719 16.046875 18.464844 C 16.007812 18.351562 15.898438 18.226562 15.804688 18.191406 C 15.710938 18.15625 15.632812 18.050781 15.632812 17.960938 C 15.632812 17.871094 15.53125 17.671875 15.40625 17.515625 C 15.28125 17.359375 15.140625 17.035156 15.09375 16.796875 C 15.050781 16.558594 14.964844 16.363281 14.90625 16.363281 C 14.851562 16.363281 14.800781 16.226562 14.800781 16.058594 C 14.800781 15.816406 14.84375 15.773438 15.011719 15.839844 C 15.125 15.890625 15.335938 15.953125 15.484375 15.984375 C 15.632812 16.015625 15.78125 16.089844 15.816406 16.144531 C 15.902344 16.28125 16.78125 16.277344 16.867188 16.144531 C 16.902344 16.085938 17.128906 16.003906 17.371094 15.960938 C 17.910156 15.859375 18.765625 15.042969 18.882812 14.515625 C 18.929688 14.308594 19.007812 14.144531 19.0625 14.144531 C 19.113281 14.144531 19.183594 14.039062 19.21875 13.910156 C 19.292969 13.625 19.792969 13.59375 20.0625 13.859375 M 5.074219 14.359375 C 5.730469 14.992188 5.738281 16.480469 5.089844 16.480469 C 4.800781 16.480469 4.726562 16.546875 4.632812 16.863281 C 4.527344 17.214844 4.519531 17.222656 4.511719 16.933594 C 4.496094 16.550781 4.226562 16.316406 3.890625 16.402344 C 3.113281 16.605469 3.90625 14.292969 4.703125 14.035156 C 4.71875 14.03125 4.882812 14.175781 5.074219 14.359375 M 19.230469 15.480469 C 19.078125 15.867188 19.285156 16.25 19.644531 16.25 C 20.050781 16.25 20.28125 16.007812 20.230469 15.640625 C 20.179688 15.300781 19.351562 15.171875 19.230469 15.480469 M 12.078125 15.78125 C 12.078125 15.84375 12.136719 15.898438 12.210938 15.898438 C 12.28125 15.898438 12.5 16.027344 12.691406 16.191406 C 12.886719 16.351562 13.128906 16.480469 13.234375 16.480469 C 13.5 16.480469 13.855469 16.828125 13.855469 17.085938 C 13.855469 17.203125 13.902344 17.300781 13.960938 17.300781 C 14.019531 17.300781 14.097656 17.476562 14.140625 17.695312 C 14.183594 17.910156 14.320312 18.207031 14.449219 18.355469 C 14.578125 18.5 14.683594 18.691406 14.683594 18.773438 C 14.683594 18.855469 14.753906 18.96875 14.839844 19.019531 C 14.925781 19.070312 15.03125 19.207031 15.074219 19.320312 C 15.117188 19.433594 15.238281 19.558594 15.347656 19.597656 C 15.628906 19.707031 16.105469 20.167969 16.105469 20.332031 C 16.105469 20.488281 15.386719 20.386719 15.277344 20.21875 C 15.242188 20.167969 15.011719 20.089844 14.765625 20.042969 C 14.515625 19.996094 14.160156 19.835938 13.976562 19.683594 C 13.792969 19.527344 13.585938 19.402344 13.511719 19.402344 C 13.441406 19.402344 13.382812 19.324219 13.382812 19.226562 C 13.382812 19.125 13.304688 19.019531 13.214844 18.984375 C 13.125 18.949219 12.984375 18.765625 12.90625 18.578125 C 12.824219 18.390625 12.71875 18.234375 12.671875 18.234375 C 12.621094 18.234375 12.519531 18 12.445312 17.710938 C 12.371094 17.421875 12.261719 17.183594 12.203125 17.183594 C 12.144531 17.183594 12.058594 16.933594 12.015625 16.628906 C 11.976562 16.324219 11.914062 15.980469 11.882812 15.867188 C 11.851562 15.753906 11.882812 15.664062 11.953125 15.664062 C 12.023438 15.664062 12.078125 15.714844 12.078125 15.78125 M 27.507812 16.21875 C 27.46875 16.460938 27.402344 16.683594 27.359375 16.714844 C 27.316406 16.746094 27.210938 17.078125 27.121094 17.445312 C 27.035156 17.816406 26.921875 18.117188 26.875 18.117188 C 26.828125 18.117188 26.757812 18.238281 26.722656 18.382812 C 26.566406 18.984375 25.605469 19.921875 24.988281 20.070312 C 24.824219 20.109375 24.664062 20.183594 24.628906 20.230469 C 24.597656 20.28125 24.230469 20.359375 23.816406 20.40625 L 23.066406 20.488281 L 23.28125 20.238281 C 23.402344 20.101562 23.546875 19.988281 23.601562 19.988281 C 23.738281 19.988281 24.394531 19.332031 24.394531 19.199219 C 24.394531 19.136719 24.5 18.996094 24.632812 18.878906 C 24.761719 18.761719 24.867188 18.597656 24.867188 18.507812 C 24.867188 18.421875 24.921875 18.351562 24.988281 18.351562 C 25.050781 18.351562 25.171875 18.117188 25.25 17.824219 C 25.328125 17.535156 25.433594 17.300781 25.484375 17.300781 C 25.535156 17.300781 25.578125 17.199219 25.578125 17.078125 C 25.578125 16.832031 25.945312 16.558594 26.441406 16.4375 C 26.621094 16.394531 26.886719 16.230469 27.023438 16.070312 C 27.40625 15.636719 27.589844 15.695312 27.507812 16.21875 M 17.761719 17.375 C 17.761719 17.820312 18.035156 18.15625 18.515625 18.304688 C 18.65625 18.347656 18.804688 18.441406 18.851562 18.507812 C 18.894531 18.578125 19.304688 18.632812 19.777344 18.632812 C 20.246094 18.632812 20.65625 18.578125 20.703125 18.507812 C 20.746094 18.441406 20.917969 18.34375 21.078125 18.292969 C 21.71875 18.097656 22.078125 17.453125 21.738281 17.117188 C 21.519531 16.902344 21.34375 16.90625 21.117188 17.128906 C 21.015625 17.230469 20.777344 17.34375 20.589844 17.378906 C 20.402344 17.414062 20.25 17.492188 20.25 17.546875 C 20.25 17.910156 18.671875 17.453125 18.492188 17.042969 C 18.347656 16.703125 17.761719 16.96875 17.761719 17.375 M 5.09375 18.890625 C 5.09375 18.992188 4.984375 19.101562 4.855469 19.136719 C 4.726562 19.171875 4.617188 19.242188 4.617188 19.300781 C 4.617188 19.492188 4.320312 19.40625 4.171875 19.171875 C 4.042969 18.964844 4.054688 18.9375 4.253906 18.9375 C 4.382812 18.9375 4.519531 18.882812 4.558594 18.820312 C 4.679688 18.628906 5.09375 18.683594 5.09375 18.890625 M 21.921875 22.484375 C 21.9375 23.757812 21.929688 23.824219 21.75 24.042969 C 21.355469 24.515625 20.957031 24.898438 20.851562 24.898438 C 20.789062 24.898438 20.691406 24.964844 20.640625 25.050781 C 20.589844 25.132812 20.375 25.320312 20.164062 25.464844 L 19.78125 25.730469 L 19.519531 25.488281 C 19.375 25.355469 19.203125 25.242188 19.132812 25.234375 C 19.0625 25.230469 18.738281 24.933594 18.414062 24.582031 L 17.824219 23.9375 L 17.824219 22.695312 C 17.824219 21.363281 17.949219 21.125 18.414062 21.582031 C 18.652344 21.816406 20.546875 21.894531 20.699219 21.675781 C 20.804688 21.519531 21.5625 21.296875 21.761719 21.367188 C 21.863281 21.402344 21.914062 21.746094 21.921875 22.484375 M 5.257812 22.628906 C 5.503906 22.722656 5.214844 23.027344 4.882812 23.027344 C 4.109375 23.027344 2.960938 23.9375 2.960938 24.550781 C 2.960938 24.820312 3.015625 24.898438 3.199219 24.898438 C 3.328125 24.898438 3.433594 24.851562 3.433594 24.796875 C 3.433594 24.742188 3.675781 24.628906 3.96875 24.546875 C 4.261719 24.464844 4.5 24.355469 4.5 24.296875 C 4.5 24.132812 5.09375 24.183594 5.273438 24.359375 C 5.460938 24.542969 5.289062 24.664062 4.84375 24.664062 C 4.71875 24.664062 4.617188 24.710938 4.617188 24.769531 C 4.617188 24.824219 4.484375 24.90625 4.324219 24.945312 C 4.160156 24.988281 4.027344 25.070312 4.027344 25.132812 C 4.027344 25.195312 3.960938 25.25 3.878906 25.25 C 3.578125 25.25 2.832031 26.03125 2.808594 26.375 C 2.78125 26.71875 3.457031 26.867188 3.65625 26.5625 C 4.082031 25.914062 5.683594 26.28125 5.683594 27.027344 C 5.683594 27.226562 5.660156 27.226562 5.335938 26.988281 C 4.917969 26.683594 4.40625 26.742188 4 27.144531 C 3.625 27.515625 3.652344 30.140625 4.035156 30.519531 C 4.550781 31.023438 5.105469 30.597656 5.1875 29.632812 C 5.324219 27.972656 5.609375 29.773438 5.542969 31.910156 L 5.507812 33.140625 L 5.152344 33.179688 C 4.957031 33.199219 4.765625 33.269531 4.726562 33.332031 C 4.6875 33.394531 4.359375 33.476562 3.996094 33.511719 L 3.335938 33.578125 L 3.296875 31.335938 C 3.261719 29.402344 3.230469 29.074219 3.0625 28.984375 C 2.957031 28.921875 2.832031 28.691406 2.789062 28.464844 C 2.75 28.238281 2.671875 28.054688 2.625 28.054688 C 2.460938 28.054688 2.25 27.003906 2.25 26.179688 C 2.25 25.394531 2.457031 24.429688 2.625 24.429688 C 2.667969 24.429688 2.742188 24.269531 2.785156 24.070312 C 2.828125 23.875 2.9375 23.683594 3.03125 23.648438 C 3.121094 23.617188 3.199219 23.523438 3.199219 23.445312 C 3.199219 22.941406 4.605469 22.382812 5.257812 22.628906 M 23.433594 24.183594 C 23.683594 25.15625 23.558594 26.074219 23.140625 26.328125 C 23.0625 26.375 22.96875 26.542969 22.929688 26.695312 C 22.863281 26.949219 21.816406 28.140625 21.746094 28.035156 C 21.734375 28.015625 21.578125 27.800781 21.398438 27.566406 C 21.222656 27.328125 21.078125 27.085938 21.078125 27.023438 C 21.078125 26.960938 21 26.878906 20.902344 26.84375 C 20.65625 26.75 20.675781 26.308594 20.929688 26.21875 C 21.308594 26.082031 22.824219 24.472656 22.984375 24.039062 C 23.1875 23.480469 23.253906 23.5 23.433594 24.183594 M 16.589844 24.105469 C 16.769531 24.53125 16.921875 24.726562 17.585938 25.371094 C 18.238281 26.007812 18.457031 26.183594 18.585938 26.183594 C 18.867188 26.183594 18.828125 26.667969 18.511719 27.082031 C 18.019531 27.722656 17.601562 28.105469 17.554688 27.964844 C 17.53125 27.898438 17.382812 27.691406 17.222656 27.511719 C 17.066406 27.328125 16.933594 27.125 16.933594 27.058594 C 16.933594 26.996094 16.828125 26.875 16.699219 26.796875 C 16.566406 26.714844 16.460938 26.570312 16.460938 26.476562 C 16.460938 26.378906 16.417969 26.300781 16.367188 26.300781 C 16.054688 26.300781 15.917969 25.226562 16.113281 24.320312 C 16.265625 23.632812 16.371094 23.585938 16.589844 24.105469 M 14.628906 25.6875 C 14.582031 25.929688 14.5 26.152344 14.449219 26.183594 C 14.394531 26.214844 14.28125 26.753906 14.195312 27.382812 C 14.109375 28.007812 14.003906 28.523438 13.957031 28.523438 C 13.910156 28.523438 13.835938 28.824219 13.789062 29.195312 C 13.746094 29.5625 13.660156 29.925781 13.601562 29.996094 C 13.542969 30.070312 13.4375 30.597656 13.363281 31.167969 C 13.292969 31.738281 13.1875 32.253906 13.128906 32.316406 C 13.074219 32.375 13.027344 32.539062 13.027344 32.679688 C 13.027344 33.011719 12.710938 33.285156 12.53125 33.109375 C 12.390625 32.96875 12.503906 31.679688 12.660156 31.679688 C 12.707031 31.679688 12.8125 31.191406 12.890625 30.601562 C 12.972656 30.007812 13.082031 29.496094 13.136719 29.460938 C 13.191406 29.425781 13.304688 28.992188 13.386719 28.492188 C 13.464844 27.996094 13.570312 27.585938 13.621094 27.585938 C 13.667969 27.585938 13.742188 27.328125 13.785156 27.015625 C 13.824219 26.699219 13.9375 26.378906 14.035156 26.296875 C 14.132812 26.21875 14.210938 26.066406 14.210938 25.960938 C 14.210938 25.789062 14.554688 25.253906 14.667969 25.25 C 14.691406 25.25 14.671875 25.445312 14.628906 25.6875 M 25.460938 25.949219 C 25.511719 25.949219 25.621094 26.316406 25.699219 26.769531 C 25.773438 27.21875 25.878906 27.585938 25.925781 27.585938 C 25.976562 27.585938 26.082031 28.035156 26.164062 28.582031 C 26.246094 29.125 26.351562 29.574219 26.402344 29.574219 C 26.449219 29.574219 26.558594 30.035156 26.640625 30.597656 C 26.726562 31.160156 26.832031 31.644531 26.882812 31.679688 C 27.175781 31.875 27.132812 33.082031 26.832031 33.082031 C 26.585938 33.082031 26.527344 33.023438 26.527344 32.796875 C 26.527344 32.644531 26.480469 32.496094 26.421875 32.476562 C 26.363281 32.457031 26.25 31.859375 26.175781 31.152344 C 26.097656 30.449219 25.996094 29.84375 25.949219 29.808594 C 25.902344 29.777344 25.796875 29.277344 25.714844 28.699219 C 25.632812 28.121094 25.527344 27.621094 25.476562 27.589844 C 25.378906 27.519531 25.101562 25.964844 25.113281 25.566406 C 25.125 25.332031 25.136719 25.339844 25.242188 25.628906 C 25.308594 25.804688 25.40625 25.949219 25.460938 25.949219 M 24.394531 27.84375 C 24.394531 28.085938 24.441406 28.289062 24.5 28.289062 C 24.558594 28.289062 24.671875 28.828125 24.753906 29.484375 C 24.832031 30.144531 24.9375 30.710938 24.984375 30.742188 C 25.085938 30.8125 25.300781 32.585938 25.246094 32.878906 C 25.207031 33.070312 25.035156 33.082031 23.171875 33.054688 L 21.136719 33.023438 L 21.078125 31.195312 C 21.046875 30.191406 21.035156 29.285156 21.058594 29.179688 C 21.105469 28.941406 21.417969 28.929688 21.511719 29.164062 C 21.679688 29.597656 22.972656 28.960938 22.972656 28.445312 C 22.972656 28.363281 23.082031 28.238281 23.210938 28.171875 C 23.339844 28.101562 23.449219 27.96875 23.449219 27.871094 C 23.449219 27.773438 23.527344 27.664062 23.625 27.628906 C 23.722656 27.59375 23.800781 27.5 23.800781 27.421875 C 23.800781 27.34375 23.867188 27.21875 23.949219 27.136719 C 24.164062 26.925781 24.394531 27.289062 24.394531 27.84375 M 15.714844 27.429688 C 15.757812 27.539062 15.875 27.71875 15.976562 27.828125 C 16.082031 27.9375 16.246094 28.132812 16.34375 28.257812 C 16.832031 28.902344 17.433594 29.457031 17.636719 29.457031 C 17.988281 29.457031 18.679688 28.96875 18.835938 28.609375 C 18.914062 28.433594 19.023438 28.289062 19.082031 28.289062 C 19.140625 28.289062 19.242188 28.15625 19.300781 27.996094 C 19.59375 27.234375 20.132812 27.84375 20.132812 28.9375 C 20.132812 29.839844 20.074219 29.925781 19.46875 29.925781 C 19.296875 29.925781 19.183594 29.992188 19.183594 30.101562 C 19.183594 30.195312 19.132812 30.273438 19.066406 30.273438 C 19 30.273438 18.949219 30.378906 18.949219 30.507812 C 18.949219 30.777344 19.34375 31.210938 19.589844 31.210938 C 19.980469 31.210938 20.132812 31.359375 20.132812 31.75 C 20.132812 31.96875 20.082031 32.144531 20.019531 32.144531 C 19.960938 32.144531 19.890625 32.34375 19.871094 32.582031 L 19.835938 33.023438 L 14.269531 33.023438 L 14.308594 32.378906 C 14.332031 32.027344 14.390625 31.683594 14.441406 31.621094 C 14.488281 31.554688 14.597656 31.027344 14.679688 30.449219 C 14.761719 29.871094 14.875 29.347656 14.925781 29.28125 C 14.996094 29.191406 15.277344 27.601562 15.277344 27.285156 C 15.277344 27.140625 15.648438 27.265625 15.714844 27.429688 M 6.488281 34.871094 L 6.523438 35.644531 L 6.015625 35.878906 C 5.421875 36.148438 4.605469 36.347656 4.054688 36.351562 C 3.84375 36.351562 3.671875 36.40625 3.671875 36.46875 C 3.671875 36.535156 3.40625 36.585938 3.085938 36.585938 C 2.433594 36.585938 2.515625 36.714844 2.3125 35.40625 C 2.242188 34.972656 2.445312 34.832031 3.160156 34.832031 C 3.507812 34.832031 3.789062 34.792969 3.789062 34.742188 C 3.789062 34.691406 4.253906 34.578125 4.820312 34.492188 C 5.386719 34.40625 5.925781 34.261719 6.015625 34.171875 C 6.320312 33.871094 6.453125 34.070312 6.488281 34.871094 "/>
</g>
</svg>
